<?xml version="1.0" encoding="iso-8859-1"?>
<!-- Generator: Adobe Illustrator 17.1.0, SVG Export Plug-In . SVG Version: 6.00 Build 0)  -->
<!DOCTYPE svg PUBLIC "-//W3C//DTD SVG 1.1//EN" "http://www.w3.org/Graphics/SVG/1.1/DTD/svg11.dtd">
<svg xmlns="http://www.w3.org/2000/svg" xmlns:xlink="http://www.w3.org/1999/xlink" version="1.1" id="Capa_1" x="0px" y="0px" viewBox="0 0 512 512" style="enable-background:new 0 0 512 512;" xml:space="preserve" width="512px" height="512px">
<g>
	<path d="M176,192c-7.735,0-16,8.406-16,32s8.265,32,16,32s16-8.406,16-32S183.735,192,176,192z" fill="#FFFFFF"/>
	<path d="M336,192c-7.735,0-16,8.406-16,32s8.265,32,16,32s16-8.406,16-32S343.735,192,336,192z" fill="#FFFFFF"/>
	<path d="M234.343,381.657c1.562,1.562,3.609,2.343,5.657,2.343s4.095-0.781,5.657-2.343c3.125-3.124,3.125-8.189,0-11.313l-16-16   c-3.124-3.124-8.189-3.124-11.313,0c-3.125,3.124-3.125,8.189,0,11.313L234.343,381.657z" fill="#FFFFFF"/>
	<path d="M272,384c2.047,0,4.095-0.781,5.657-2.343l16-16c3.125-3.124,3.125-8.189,0-11.313c-3.124-3.124-8.189-3.124-11.313,0   l-16,16c-3.125,3.124-3.125,8.189,0,11.313C267.905,383.219,269.953,384,272,384z" fill="#FFFFFF"/>
	<path d="M300.313,424.9c-16.255,8.441-30.723-0.331-36.313-4.608V400c0-4.418-3.582-8-8-8s-8,3.582-8,8v20.295   c-5.598,4.279-20.068,13.04-36.313,4.605c-3.922-2.036-8.75-0.508-10.787,3.414c-2.036,3.921-0.508,8.75,3.414,10.787   c7.576,3.934,14.823,5.425,21.467,5.425c13.228,0,24.044-5.92,30.219-10.281c6.175,4.361,16.99,10.281,30.22,10.281   c6.642,0,13.893-1.493,21.467-5.425c3.921-2.036,5.449-6.865,3.414-10.787C309.064,424.393,304.236,422.864,300.313,424.9z" fill="#FFFFFF"/>
	<path d="M264,448h-16c-4.418,0-8,3.582-8,8s3.582,8,8,8h16c4.418,0,8-3.582,8-8S268.418,448,264,448z" fill="#FFFFFF"/>
	<path d="M501.47,295.587c2.439,0.813,5.122,0.404,7.208-1.1c2.086-1.503,3.322-3.918,3.322-6.49c0-16.881-21.896-58.168-34.178-80   H480c2.834,0,5.458-1.5,6.895-3.943c1.438-2.443,1.475-5.464,0.098-7.942c-1.499-2.698-12.476-22.101-24.864-34.757   c3.67-2.602,7.172-5.519,10.44-8.787c27.181-27.181,23.661-61.41-10.462-101.736c-15.615-18.454-36.092-29.563-56.182-30.479   c-14.556-0.663-28.453,4.113-40.601,13.848c-0.313-0.276-0.644-0.539-1.008-0.77C329.375,11.248,292.933,0,256,0   c-36.922,0-73.355,11.242-108.288,33.414c-0.373,0.237-0.712,0.506-1.032,0.79c-12.147-9.737-26.04-14.512-40.606-13.851   c-20.089,0.916-40.566,12.025-56.181,30.479c-34.123,40.326-37.642,74.555-10.461,101.736c3.269,3.269,6.771,6.187,10.441,8.788   c-12.388,12.655-23.366,32.06-24.865,34.758c-1.376,2.478-1.339,5.499,0.098,7.942C26.542,206.5,29.166,208,32,208h2.178   C21.896,229.832,0,271.119,0,288c0,2.572,1.236,4.986,3.322,6.49c2.086,1.504,4.769,1.913,7.208,1.1l6.84-2.28   C10.056,311.047,0,339.215,0,360c0,2.572,1.236,4.986,3.322,6.49c2.086,1.504,4.769,1.913,7.208,1.1L24,363.1V424   c0,4.418,3.582,8,8,8h29.754l-5.515,22.06c-0.597,2.39-0.061,4.922,1.456,6.864S61.537,464,64,464h28.9l-4.49,13.47   c-1.296,3.888,0.556,8.127,4.289,9.817c0.572,0.259,14.306,6.407,41.417,12.517C158.805,505.368,199.991,512,256,512   c0.018,0,0.035-0.002,0.052-0.003c55.982-0.004,97.151-6.633,121.832-12.196c27.11-6.109,40.845-12.258,41.417-12.517   c3.733-1.69,5.585-5.929,4.289-9.817l-4.49-13.47H448c2.463,0,4.79-1.135,6.306-3.077s2.053-4.474,1.456-6.864l-5.515-22.06H480   c4.418,0,8-3.582,8-8v-60.9l13.47,4.49c2.439,0.813,5.122,0.404,7.208-1.1c2.086-1.503,3.322-3.918,3.322-6.49   c0-20.785-10.056-48.953-17.37-66.69L501.47,295.587z M405.197,36.336c15.426,0.704,32.135,9.986,44.696,24.831   c37.569,44.4,24.478,66.972,11.362,80.087c-4.346,4.346-9.185,7.961-14.352,10.824c-1.717,0.239-3.339,1.033-4.592,2.305   c-16.305,7.386-35.231,7.676-52.171,0.169c2.13-7.781,6.813-17.646,16.167-29.631c2.224-2.85,2.261-6.837,0.089-9.728   c-2.171-2.89-6.01-3.966-9.367-2.623l-25.204,10.082c4.606-15.253,13.242-38.666,26.181-53.369c2.328-2.646,2.651-6.504,0.794-9.5   s-5.456-4.424-8.861-3.515c-1.107,0.295-16.249,4.455-32.937,14.86c3.193-7.623,7.829-14.564,13.698-20.34   C381.028,40.627,392.647,35.759,405.197,36.336z M62.107,61.167c12.562-14.845,29.27-24.127,44.696-24.831   c12.559-0.577,24.169,4.29,34.498,14.454c5.869,5.775,10.505,12.717,13.698,20.34c-16.687-10.405-31.83-14.565-32.937-14.86   c-3.407-0.908-7.004,0.52-8.861,3.515c-1.857,2.996-1.534,6.854,0.794,9.5c12.909,14.669,21.555,38.1,26.171,53.365l-25.194-10.078   c-3.357-1.342-7.196-0.268-9.367,2.623c-2.171,2.891-2.135,6.877,0.089,9.728c9.354,11.985,14.037,21.85,16.167,29.631   c-16.942,7.508-35.869,7.217-52.176-0.171c-1.252-1.268-2.869-2.061-4.582-2.3c-5.169-2.863-10.01-6.48-14.357-10.827   C37.629,128.139,24.538,105.567,62.107,61.167z M495.008,348.568l-12.479-4.16c-2.439-0.813-5.122-0.404-7.208,1.1   c-2.086,1.503-3.322,3.918-3.322,6.49v64h-32c-2.463,0-4.79,1.135-6.306,3.077s-2.053,4.474-1.456,6.864l5.515,22.06H408   c-2.572,0-4.986,1.236-6.49,3.322c-1.504,2.086-1.913,4.768-1.1,7.208l5.588,16.764c-6.335,2.247-17.133,5.664-32.318,9.056   c-23.793,5.315-63.524,11.65-117.681,11.65c-0.015,0-0.03,0.002-0.045,0.002c-54.133-0.003-93.849-6.337-117.635-11.65   c-15.186-3.392-25.986-6.811-32.318-9.056l5.588-16.764c0.813-2.439,0.404-5.122-1.1-7.208c-1.503-2.086-3.918-3.322-6.49-3.322   H74.246l5.515-22.06c0.597-2.39,0.061-4.922-1.456-6.864S74.463,416,72,416H40v-64c0-2.572-1.236-4.986-3.322-6.49   c-2.086-1.504-4.768-1.913-7.208-1.1l-12.477,4.159c4.41-28.092,22.002-64.662,22.206-65.081c1.402-2.896,0.935-6.35-1.189-8.768   c-2.123-2.417-5.487-3.329-8.54-2.311l-10.588,3.529c6.798-19.199,24.15-51.713,36.014-71.884c1.455-2.474,1.474-5.537,0.049-8.028   C53.52,193.537,50.87,192,48,192h-1.751c5.554-8.423,12.361-17.419,18.2-22.449c9.978,4.301,20.694,6.524,31.501,6.524   c9.003,0,18.062-1.537,26.798-4.654c-0.247,1.076-0.534,1.983-0.813,2.715c-2.049,5.397-6.199,9.041-11.385,9.996   c-4.345,0.8-7.219,4.972-6.418,9.317c0.71,3.855,4.074,6.552,7.858,6.552c0.481,0,0.969-0.043,1.458-0.134   c10.658-1.963,19.422-9.459,23.444-20.051c2.965-7.808,5.279-22.423-4.845-43.181l16.98,6.792c2.741,1.096,5.865,0.594,8.125-1.309   c2.259-1.903,3.286-4.895,2.671-7.784c-0.318-1.497-6.135-28.31-18.702-52.731c12.573,6.939,27.248,17.921,35.802,34.13   c2.063,3.908,6.902,5.404,10.809,3.341c3.908-2.063,5.403-6.902,3.341-10.809c-4.256-8.065-9.657-15.001-15.554-20.939   c-0.006-0.072-0.005-0.143-0.013-0.215c-1.701-15.298-7.766-29.714-17.268-41.409C189.965,25.996,222.844,16,256,16   c33.157,0,66.036,9.996,97.76,29.703c-9.502,11.695-15.566,26.111-17.268,41.409c-0.008,0.072-0.007,0.143-0.013,0.214   c-5.897,5.938-11.298,12.875-15.555,20.94c-2.062,3.907-0.566,8.747,3.341,10.809c3.907,2.061,8.747,0.566,10.809-3.341   c8.556-16.21,23.229-27.192,35.802-34.131c-12.566,24.421-18.383,51.235-18.702,52.732c-0.615,2.889,0.412,5.881,2.671,7.784   c2.259,1.902,5.382,2.405,8.125,1.309l16.98-6.792c-10.124,20.758-7.81,35.374-4.845,43.181   c4.022,10.592,12.787,18.087,23.444,20.051c0.49,0.09,0.977,0.134,1.458,0.134c3.784,0,7.148-2.697,7.858-6.552   c0.8-4.345-2.073-8.517-6.418-9.317c-5.186-0.955-9.335-4.599-11.385-9.996c-0.278-0.732-0.566-1.639-0.813-2.715   c8.736,3.117,17.794,4.653,26.798,4.653c10.812,0,21.534-2.226,31.516-6.531c6.109,5.215,12.928,14.459,18.178,22.454H464   c-2.87,0-5.52,1.537-6.944,4.028c-1.425,2.491-1.406,5.555,0.049,8.028c11.863,20.17,29.216,52.685,36.014,71.884l-10.588-3.529   c-3.052-1.018-6.418-0.108-8.542,2.311c-2.123,2.418-2.591,5.873-1.187,8.769C473.004,283.906,490.602,320.454,495.008,348.568z" fill="#FFFFFF"/>
</g>
<g>
</g>
<g>
</g>
<g>
</g>
<g>
</g>
<g>
</g>
<g>
</g>
<g>
</g>
<g>
</g>
<g>
</g>
<g>
</g>
<g>
</g>
<g>
</g>
<g>
</g>
<g>
</g>
<g>
</g>
</svg>
